<svg role="img" xmlns="http://www.w3.org/2000/svg" width="152.8" height="314" viewBox="0 0 152.8 314" font-family="sans-serif" font-size="14">
  <rect width="100%" height="100%" fill="#ffffff"/>
  <g transform="translate(16,16)">
    <path d="M60.4,64 L60.4,129" fill="none" stroke="#333333"/>
    <line x1="65.4" y1="71" x2="55.4" y2="71" stroke="#333333"/>
    <line x1="60.4" y1="117" x2="54.4" y2="129" stroke="#333333"/>
    <line x1="60.4" y1="117" x2="66.4" y2="129" stroke="#333333"/>
    <line x1="60.4" y1="117" x2="60.4" y2="129" stroke="#333333"/>
    <circle cx="60.4" cy="111" r="4" fill="#ffffff" stroke="#333333"/>
    <text x="60.4" y="129" fill="#333333" text-anchor="middle" dy="-2">places</text>
    <path d="M60.4,193 L60.4,258" fill="none" stroke="#333333"/>
    <line x1="65.4" y1="200" x2="55.4" y2="200" stroke="#333333"/>
    <line x1="60.4" y1="246" x2="54.4" y2="258" stroke="#333333"/>
    <line x1="60.4" y1="246" x2="66.4" y2="258" stroke="#333333"/>
    <line x1="60.4" y1="246" x2="60.4" y2="258" stroke="#333333"/>
    <line x1="55.4" y1="244" x2="65.4" y2="244" stroke="#333333"/>
    <text x="60.4" y="258" fill="#333333" text-anchor="middle" dy="-2">contains</text>
    <rect x="0" y="0" width="120.8" height="64" fill="#ECECFF" stroke="#9370DB"/>
    <text x="60.4" y="14" fill="#333333" text-anchor="middle" font-weight="bold">CUSTOMER</text>
    <line x1="0" y1="24" x2="120.8" y2="24" stroke="#9370DB"/>
    <text x="10" y="41" fill="#333333">string name</text>
    <text x="10" y="61" fill="#333333">string email</text>
    <rect x="0" y="129" width="120.8" height="64" fill="#ECECFF" stroke="#9370DB"/>
    <text x="60.4" y="143" fill="#333333" text-anchor="middle" font-weight="bold">ORDER</text>
    <line x1="0" y1="153" x2="120.8" y2="153" stroke="#9370DB"/>
    <text x="10" y="170" fill="#333333">int id</text>
    <text x="10" y="190" fill="#333333">date created</text>
    <rect x="12.6" y="258" width="95.6" height="24" fill="#ECECFF" stroke="#9370DB"/>
    <text x="60.4" y="272" fill="#333333" text-anchor="middle" font-weight="bold">LINE_ITEM</text>
  </g>
</svg>
