<svg role="img" xmlns="http://www.w3.org/2000/svg" width="228.91" height="289.45" viewBox="0 0 228.91 289.45" font-family="sans-serif" font-size="14">
  <defs><marker id="arrow" viewBox="0 0 10 10" refX="9" refY="5" markerWidth="7" markerHeight="7" orient="auto-start-reverse"><path d="M0,0 L10,5 L0,10 z" fill="#333333"/></marker></defs>
  <rect width="100%" height="100%" fill="#ffffff"/>
  <g transform="translate(16,16)">
    <path d="M135.53,42 L135.53,67 L98.46,67 L98.46,92" fill="none" stroke="#333333" stroke-width="1.5" marker-end="url(#arrow)"/>
    <path d="M82.84,134 L82.84,166.86 L36.73,166.86 L36.73,199.72" fill="none" stroke="#333333" stroke-width="1.5" marker-end="url(#arrow)"/>
    <rect x="45.89" y="152.86" width="27.78" height="18" fill="#ffffff"/>
    <text x="59.79" y="166.86" fill="#333333" text-anchor="middle" dy="-2">yes</text>
    <path d="M114.07,134 L114.07,166.86 L147.94,166.86 L147.94,184" fill="none" stroke="#333333" stroke-width="1.5" marker-end="url(#arrow)"/>
    <rect x="120.22" y="145" width="21.57" height="18" fill="#ffffff"/>
    <text x="131.01" y="159" fill="#333333" text-anchor="middle" dy="-2">no</text>
    <path d="M172.42,42 L172.42,67 L195.79,67 L195.79,113 L195.79,166.86 L158.72,166.86 L158.72,184" fill="none" stroke="#333333" stroke-width="1.5" marker-end="url(#arrow)"/>
    <rect x="112.34" y="0" width="69.57" height="42" fill="#ECECFF" stroke="#9370DB"/>
    <text fill="#333333" text-anchor="middle"><tspan x="147.13" y="25.9">Start</tspan></text>
    <polygon points="98.46,92 145.29,113 98.46,134 51.62,113" fill="#ECECFF" stroke="#9370DB"/>
    <text fill="#333333" text-anchor="middle"><tspan x="98.46" y="117.9">Decision</tspan></text>
    <rect x="0" y="199.72" width="73.46" height="42" rx="21" fill="#ECECFF" stroke="#9370DB"/>
    <text fill="#333333" text-anchor="middle"><tspan x="36.73" y="225.62">Done</tspan></text>
    <circle cx="160.18" cy="220.72" r="36.72" fill="#ECECFF" stroke="#9370DB"/>
    <text fill="#333333" text-anchor="middle"><tspan x="160.18" y="225.62">Retry</tspan></text>
  </g>
</svg>
